<svg width="28" height="29" viewBox="0 0 28 29" fill="none" xmlns="http://www.w3.org/2000/svg">
<g id="Group 1584">
<path id="Path 2930" d="M27.6515 14.5498C27.6515 16.3504 27.2968 18.1334 26.6077 19.797C25.9186 21.4606 24.9085 22.9722 23.6353 24.2454C22.362 25.5186 20.8504 26.5284 19.1868 27.2174C17.5232 27.9064 15.7401 28.261 13.9395 28.2609C10.3031 28.2609 6.8157 26.8163 4.24438 24.245C1.67307 21.6737 0.228516 18.1862 0.228516 14.5498C0.228516 10.9134 1.67307 7.42593 4.24438 4.85461C6.8157 2.2833 10.3031 0.838867 13.9395 0.838867C17.5759 0.838867 21.0635 2.28333 23.635 4.85461C26.2065 7.4259 27.6512 10.9133 27.6515 14.5498Z" fill="#FFC500"/>
<g id="Group 1583">
<path id="Path 2931" d="M8.93457 16.3857L11.0476 18.4987L18.9476 10.5986" stroke="#FFFFFA" stroke-width="2.294" stroke-linecap="round" stroke-linejoin="round"/>
</g>
</g>
</svg>
